<svg width="100%" height="100%" viewBox="0 0 300 96" fill="none" xmlns="http://www.w3.org/2000/svg">
<g id="Mask Group">
<g id="cup">
<path id="Vector" d="M148.97 44.3496C148.995 44.6524 150.853 45.4012 153.054 45.2034C155.254 45.0057 156.964 43.9361 156.94 43.6333C156.915 43.3305 155.165 43.9091 152.964 44.1069C150.763 44.3047 148.945 44.0468 148.97 44.3496Z" fill="#3F3D56"/>
<path id="Vector_2" opacity="0.2" d="M148.97 44.3496C148.995 44.6524 150.853 45.4012 153.054 45.2034C155.254 45.0057 156.964 43.9361 156.94 43.6333C156.915 43.3305 155.165 43.9091 152.964 44.1069C150.763 44.3047 148.945 44.0468 148.97 44.3496Z" fill="black"/>
<path id="Vector_3" d="M153 44.5424C150.799 44.7402 148.991 44.6046 148.961 44.2396C148.931 43.8745 150.691 43.4182 152.892 43.2204C155.093 43.0226 156.901 43.1582 156.931 43.5233C156.96 43.8883 155.2 44.3446 153 44.5424Z" fill="#3F3D56"/>
<path id="Vector_4" opacity="0.2" d="M153 44.5424C152.093 44.6239 151.347 44.5419 151.332 44.3594C151.317 44.1768 152.04 43.9628 152.946 43.8814C153.852 43.7999 154.599 43.8819 154.614 44.0644C154.628 44.247 153.906 44.461 153 44.5424Z" fill="black"/>
<path id="Vector_5" d="M149.038 38.2398L150.807 38.0808L150.809 38.0999L155.04 37.7196L155.126 38.7684C155.346 41.4643 154.246 43.7645 152.67 43.9062L152.67 43.9062C152.172 43.9513 151.663 43.772 151.196 43.386C150.729 43 150.319 42.421 150.008 41.7065L149.326 41.7678C149.052 41.7924 148.775 41.6301 148.554 41.3167C148.334 41.0032 148.189 40.5643 148.15 40.0965C148.112 39.6287 148.184 39.1702 148.351 38.822C148.517 38.4738 148.764 38.2644 149.038 38.2398ZM149.281 41.224L149.803 41.1771C149.602 40.585 149.472 39.94 149.418 39.2814L149.376 38.7572L149.082 38.7836C148.893 38.8006 148.722 38.9455 148.607 39.1863C148.492 39.4272 148.442 39.7443 148.468 40.0679C148.495 40.3915 148.595 40.6951 148.748 40.9119C148.9 41.1288 149.092 41.241 149.281 41.224V41.224Z" fill="#3F3D56"/>
<path id="Vector_6" d="M155.093 38.3615L155.138 38.9101C155.321 41.159 154.314 43.0926 152.892 43.2204C151.47 43.3482 150.164 41.6225 149.981 39.3735L149.936 38.825L155.093 38.3615Z" fill="#F9A826"/>
<path id="Vector_7" d="M154.029 39.7889C153.899 39.8005 153.77 39.514 153.74 39.1489C153.71 38.7838 153.791 38.4784 153.921 38.4668C154.05 38.4552 154.179 38.7417 154.209 39.1068C154.239 39.4718 154.158 39.7772 154.029 39.7889Z" fill="#E6E6E6"/>
<path id="Vector_8" d="M150.801 40.7448C150.671 40.7564 150.554 40.6179 150.539 40.4354C150.525 40.2528 150.617 40.0954 150.747 40.0838C150.876 40.0721 150.993 40.2107 151.008 40.3932C151.023 40.5758 150.93 40.7332 150.801 40.7448Z" fill="#E6E6E6"/>
<path id="Vector_9" d="M156.607 43.4682C156.102 43.6742 155.521 43.6078 155.521 43.6078C155.521 43.6078 155.758 43.2075 156.263 43.0015C156.768 42.7956 157.349 42.862 157.349 42.862C157.349 42.862 157.112 43.2623 156.607 43.4682Z" fill="#E6E6E6"/>
<path id="Vector_10" d="M156.535 44.2212C156.022 44.3226 155.532 43.749 155.532 43.749C155.785 43.2612 156.075 42.9765 156.389 42.9096C156.902 42.8082 157.391 43.3817 157.391 43.3817C157.139 43.8696 156.848 44.1543 156.535 44.2212V44.2212Z" fill="#F9A826"/>
<path id="Vector_11" d="M156.451 43.1527C156.092 43.5526 155.524 43.6497 155.524 43.6497C155.524 43.6497 155.537 43.0982 155.896 42.6983C156.255 42.2983 156.823 42.2012 156.823 42.2012C156.823 42.2012 156.81 42.7527 156.451 43.1527Z" fill="#F9A826"/>
<path id="Vector_12" opacity="0.3" d="M155.093 38.3615L155.138 38.9101C155.321 41.159 154.314 43.0926 152.892 43.2204C151.47 43.3482 150.164 41.6225 149.981 39.3735L149.936 38.825L155.093 38.3615Z" fill="#F9A826"/>
</g>
<g id="text">
<g id="Furni Ture" filter="url(#filter0_b)">
<path d="M1.05469 45.5312C1.05469 45.25 1.13672 45.0508 1.30078 44.9336C1.46484 44.8164 1.66406 44.7344 1.89844 44.6875C2.13281 44.6406 2.37891 44.6172 2.63672 44.6172C2.89453 44.6172 3.11719 44.6055 3.30469 44.582V48.3086C5.01562 47.793 6.43359 47.3359 7.55859 46.9375C8.68359 46.5156 9.70312 46.1523 10.6172 45.8477C11.5312 45.5195 12.4219 45.2266 13.2891 44.9688C14.1562 44.6875 15.1875 44.418 16.3828 44.1602C16.5703 44.1602 16.6992 44.2539 16.7695 44.4414C16.8398 44.6289 16.875 44.793 16.875 44.9336C16.875 45.2383 16.7109 45.4844 16.3828 45.6719L3.44531 50.418L4.04297 61.8086C5.96484 60.7305 7.58203 59.8164 8.89453 59.0664C10.2305 58.3164 11.332 57.6953 12.1992 57.2031C13.0664 56.7109 13.7344 56.3359 14.2031 56.0781C14.6953 55.8203 15.0586 55.6328 15.293 55.5156C15.5273 55.3984 15.668 55.3281 15.7148 55.3047C15.7617 55.2812 15.7969 55.2695 15.8203 55.2695C16.0312 55.1992 16.1719 55.2109 16.2422 55.3047C16.3125 55.375 16.3477 55.4922 16.3477 55.6562C16.3477 55.8203 16.3125 56.0078 16.2422 56.2188C16.1953 56.4297 16.1367 56.6289 16.0664 56.8164C15.9492 56.9805 15.5625 57.2617 14.9062 57.6602C14.2734 58.0586 13.5117 58.5156 12.6211 59.0312C11.7305 59.5469 10.7812 60.0977 9.77344 60.6836C8.78906 61.2461 7.86328 61.7734 6.99609 62.2656C6.15234 62.7578 5.44922 63.1914 4.88672 63.5664C4.32422 63.9414 4.04297 64.1875 4.04297 64.3047L4.14844 73.4805C4.14844 73.8086 4.08984 74.0664 3.97266 74.2539C3.85547 74.4414 3.66797 74.5352 3.41016 74.5352C3.12891 74.5352 2.87109 74.1719 2.63672 73.4453C2.42578 72.6953 2.23828 71.7109 2.07422 70.4922C1.91016 69.25 1.76953 67.832 1.65234 66.2383C1.53516 64.6211 1.44141 62.957 1.37109 61.2461C1.30078 59.5352 1.24219 57.8359 1.19531 56.1484C1.14844 54.4375 1.11328 52.8672 1.08984 51.4375C1.06641 50.0078 1.05469 48.7656 1.05469 47.7109C1.05469 46.6562 1.05469 45.9297 1.05469 45.5312ZM38.5298 53.7578C38.5533 53.6172 38.6236 53.4648 38.7408 53.3008C38.8814 53.1133 39.0455 52.9844 39.233 52.9141C39.4439 52.8438 39.6666 52.8789 39.9009 53.0195C40.1587 53.1367 40.4166 53.418 40.6744 53.8633C40.5806 55.668 40.4634 57.4727 40.3228 59.2773C40.2056 61.0586 40.147 62.8281 40.147 64.5859C40.1705 66.3203 40.2877 68.043 40.4986 69.7539C40.733 71.4648 41.1431 73.1289 41.7291 74.7461C41.7525 74.9102 41.6939 75.0508 41.5533 75.168C41.4127 75.3086 41.2252 75.4023 40.9908 75.4492C40.7564 75.5195 40.522 75.543 40.2877 75.5195C40.0533 75.4961 39.8658 75.3906 39.7252 75.2031L38.4947 69.332C38.4009 69.6367 38.1314 70.082 37.6861 70.668C37.2642 71.2539 36.7603 71.8516 36.1744 72.4609C35.6119 73.0469 35.0259 73.5742 34.4166 74.043C33.8072 74.4883 33.2798 74.7227 32.8345 74.7461C31.733 74.8164 30.8658 74.4297 30.233 73.5859C29.6002 72.7422 29.1314 71.6406 28.8267 70.2812C28.5455 68.8984 28.3814 67.3633 28.3345 65.6758C28.2877 63.9883 28.2877 62.3477 28.3345 60.7539C28.3814 59.1602 28.44 57.7188 28.5103 56.4297C28.5806 55.1406 28.5806 54.1914 28.5103 53.582C28.5806 53.3945 28.6978 53.2539 28.8619 53.1602C29.0494 53.0664 29.2486 53.0195 29.4595 53.0195C29.6705 53.0195 29.8697 53.0664 30.0572 53.1602C30.2681 53.2539 30.4205 53.3945 30.5142 53.582C30.5611 54.3789 30.5728 55.375 30.5494 56.5703C30.5259 57.7656 30.5025 59.043 30.4791 60.4023C30.4556 61.7383 30.4556 63.0859 30.4791 64.4453C30.5259 65.8047 30.6197 67.0469 30.7603 68.1719C30.9009 69.2734 31.1119 70.1992 31.3931 70.9492C31.6978 71.6758 32.1197 72.0859 32.6587 72.1797C33.0572 72.1797 33.4556 72.0508 33.8541 71.793C34.2525 71.5352 34.6509 71.207 35.0494 70.8086C35.4478 70.3867 35.8228 69.9297 36.1744 69.4375C36.5259 68.9219 36.8306 68.4297 37.0884 67.9609C37.3462 67.4688 37.5572 67.0234 37.7212 66.625C37.8853 66.2266 37.9791 65.9219 38.0025 65.7109C38.0259 65.4297 38.0611 64.9844 38.108 64.375C38.1548 63.7422 38.19 63.0391 38.2134 62.2656C38.2603 61.4688 38.2955 60.625 38.3189 59.7344C38.3658 58.8438 38.4009 58.0117 38.4244 57.2383C38.4712 56.4414 38.4947 55.7383 38.4947 55.1289C38.5181 54.4961 38.5298 54.0391 38.5298 53.7578ZM53.505 73.832C53.4347 70.5977 53.3761 67.8555 53.3292 65.6055C53.2823 63.3555 53.2472 61.4922 53.2237 60.0156C53.2003 58.5391 53.1769 57.3906 53.1534 56.5703C53.1534 55.7266 53.1417 55.1055 53.1183 54.707C53.1183 54.3086 53.1183 54.0742 53.1183 54.0039C53.1183 53.9102 53.1183 53.8516 53.1183 53.8281C53.1417 53.6172 53.2472 53.4414 53.4347 53.3008C53.6222 53.1602 53.8214 53.0781 54.0323 53.0547C54.2667 53.0078 54.4894 53.0312 54.7003 53.125C54.9112 53.2188 55.0636 53.3711 55.1573 53.582L55.2628 61.668C55.6144 60.0508 56.1769 58.7031 56.9503 57.625C57.7472 56.5469 58.6378 55.7031 59.6222 55.0938C60.6066 54.4609 61.6261 54.0508 62.6808 53.8633C63.7589 53.6758 64.755 53.6641 65.6691 53.8281C65.9737 53.8984 66.1964 54.0273 66.337 54.2148C66.5011 54.4023 66.5831 54.6133 66.5831 54.8477C66.6066 55.0586 66.548 55.2695 66.4073 55.4805C66.2902 55.668 66.1261 55.8086 65.9152 55.9023C64.8605 55.832 63.8644 55.9258 62.9269 56.1836C62.0128 56.418 61.1691 56.7812 60.3956 57.2734C59.6456 57.7422 58.9777 58.3047 58.3917 58.9609C57.8292 59.6172 57.3839 60.3086 57.0558 61.0352C56.5636 62.0898 56.2237 63.2031 56.0362 64.375C55.8722 65.5234 55.7667 66.6719 55.7198 67.8203C55.6964 68.9688 55.6964 70.0586 55.7198 71.0898C55.7667 72.1211 55.7784 73.0234 55.755 73.7969C55.7316 74.0547 55.6144 74.2539 55.4034 74.3945C55.2159 74.5117 54.9933 74.5703 54.7355 74.5703C54.5011 74.5938 54.255 74.5469 53.9972 74.4297C53.7628 74.2891 53.5987 74.0898 53.505 73.832ZM78.113 53.5469C78.1364 53.3125 78.2302 53.125 78.3942 52.9844C78.5583 52.8438 78.7458 52.7617 78.9567 52.7383C79.1677 52.6914 79.3786 52.7148 79.5895 52.8086C79.8005 52.8789 79.9762 52.9961 80.1169 53.1602L80.0114 67.2227C80.4567 65.5352 80.8552 63.8711 81.2067 62.2305C81.5817 60.5664 82.0387 59.0664 82.5778 57.7305C83.1169 56.3711 83.7966 55.2578 84.6169 54.3906C85.4372 53.5 86.527 52.9961 87.8864 52.8789C88.613 52.8086 89.2458 53.0312 89.7848 53.5469C90.3239 54.0391 90.7809 54.7188 91.1559 55.5859C91.5544 56.4531 91.8825 57.4727 92.1403 58.6445C92.3981 59.793 92.5973 61 92.738 62.2656C92.902 63.5078 93.0192 64.7617 93.0895 66.0273C93.1598 67.293 93.2067 68.4648 93.2302 69.543C93.2536 70.6211 93.2536 71.5703 93.2302 72.3906C93.2302 73.2109 93.2184 73.8086 93.195 74.1836C93.0309 74.582 92.738 74.8398 92.3161 74.957C91.9177 75.0977 91.5544 74.9336 91.2262 74.4648C91.2028 74.0195 91.1911 73.2578 91.1911 72.1797C91.1911 71.0781 91.1677 69.8242 91.1208 68.418C91.0973 67.0117 91.027 65.5469 90.9098 64.0234C90.8161 62.4766 90.6403 61.0586 90.3825 59.7695C90.1481 58.457 89.8083 57.3672 89.363 56.5C88.9411 55.6094 88.3903 55.1055 87.7106 54.9883C87.1247 54.8945 86.5505 55.2109 85.988 55.9375C85.4489 56.6641 84.9216 57.625 84.4059 58.8203C83.9137 60.0156 83.445 61.3633 82.9997 62.8633C82.5778 64.3633 82.1911 65.8398 81.8395 67.293C81.5114 68.7461 81.2302 70.082 80.9958 71.3008C80.7614 72.5195 80.6091 73.457 80.5387 74.1133C80.4684 74.3008 80.3278 74.4531 80.1169 74.5703C79.9059 74.6875 79.6716 74.7461 79.4137 74.7461C79.1794 74.7695 78.9333 74.7344 78.6755 74.6406C78.4411 74.5469 78.2653 74.3711 78.1481 74.1133L78.113 53.5469ZM105.428 52.9141C105.569 52.8438 105.733 52.7852 105.92 52.7383C106.108 52.6914 106.283 52.668 106.447 52.668C106.635 52.668 106.811 52.7031 106.975 52.7734C107.139 52.8438 107.268 52.9727 107.362 53.1602C107.362 54.6836 107.373 56.3359 107.397 58.1172C107.444 59.875 107.49 61.668 107.537 63.4961C107.608 65.3008 107.666 67.082 107.713 68.8398C107.76 70.5977 107.807 72.2266 107.854 73.7266C107.877 74.0781 107.783 74.3477 107.572 74.5352C107.362 74.7227 107.127 74.8164 106.869 74.8164C106.635 74.8164 106.412 74.7227 106.201 74.5352C105.99 74.3711 105.885 74.1016 105.885 73.7266L105.428 52.9141ZM105.006 45.7422C105.006 45.4375 105.112 45.2383 105.322 45.1445C105.533 45.0273 105.768 44.9688 106.026 44.9688C106.541 44.9688 106.858 45.1445 106.975 45.4961C107.115 45.8242 107.186 46.2109 107.186 46.6562C107.045 46.9375 106.858 47.1367 106.623 47.2539C106.389 47.3711 106.143 47.3945 105.885 47.3242C105.651 47.2539 105.44 47.0898 105.252 46.832C105.088 46.5742 105.006 46.2109 105.006 45.7422ZM159.671 47.4648C158.757 47.3477 157.843 47.3359 156.929 47.4297C156.015 47.5 155.101 47.5938 154.187 47.7109C153.296 47.8281 152.394 47.9453 151.48 48.0625C150.566 48.1562 149.652 48.168 148.738 48.0977C148.48 48.0742 148.21 48.0156 147.929 47.9219C147.671 47.8281 147.566 47.582 147.613 47.1836C147.636 46.9258 147.765 46.668 147.999 46.4102C148.234 46.1523 148.48 46.0352 148.738 46.0586L159.32 45.4258C159.343 45.3086 159.39 45.1445 159.46 44.9336C159.531 44.6992 159.624 44.4766 159.742 44.2656C159.859 44.0547 159.999 43.8789 160.163 43.7383C160.327 43.5742 160.515 43.5039 160.726 43.5273C161.031 43.5508 161.265 43.6562 161.429 43.8438C161.617 44.0078 161.769 44.1953 161.886 44.4062C162.003 44.5938 162.109 44.7695 162.202 44.9336C162.296 45.0977 162.413 45.1914 162.554 45.2148C166.327 45.2148 170.206 45.1445 174.191 45.0039C174.261 45.0039 174.449 45.0156 174.753 45.0391C175.058 45.0391 175.269 45.0508 175.386 45.0742C175.527 45.4727 175.374 45.7891 174.929 46.0234C174.507 46.2344 173.886 46.3984 173.066 46.5156C172.269 46.6328 171.355 46.7148 170.324 46.7617C169.292 46.8086 168.261 46.8438 167.23 46.8672C166.222 46.8906 165.261 46.9258 164.347 46.9727C163.456 47.0195 162.753 47.0898 162.238 47.1836C162.05 48.4023 161.945 49.7148 161.921 51.1211C161.898 52.5273 161.898 53.9805 161.921 55.4805C161.968 56.9805 162.038 58.5039 162.132 60.0508C162.226 61.5977 162.308 63.1211 162.378 64.6211C162.472 66.1211 162.531 67.5742 162.554 68.9805C162.577 70.3867 162.542 71.6992 162.449 72.918C162.589 73.668 162.519 74.1016 162.238 74.2188C161.98 74.3125 161.476 74.3008 160.726 74.1836C160.538 73.2227 160.398 72.0625 160.304 70.7031C160.21 69.3203 160.14 67.832 160.093 66.2383C160.046 64.6211 160.023 62.957 160.023 61.2461C160.023 59.5117 160.011 57.8125 159.988 56.1484C159.964 54.4844 159.929 52.9141 159.882 51.4375C159.859 49.9375 159.788 48.6133 159.671 47.4648ZM187.795 53.7578C187.818 53.6172 187.889 53.4648 188.006 53.3008C188.146 53.1133 188.31 52.9844 188.498 52.9141C188.709 52.8438 188.932 52.8789 189.166 53.0195C189.424 53.1367 189.682 53.418 189.939 53.8633C189.846 55.668 189.728 57.4727 189.588 59.2773C189.471 61.0586 189.412 62.8281 189.412 64.5859C189.435 66.3203 189.553 68.043 189.764 69.7539C189.998 71.4648 190.408 73.1289 190.994 74.7461C191.018 74.9102 190.959 75.0508 190.818 75.168C190.678 75.3086 190.49 75.4023 190.256 75.4492C190.021 75.5195 189.787 75.543 189.553 75.5195C189.318 75.4961 189.131 75.3906 188.99 75.2031L187.76 69.332C187.666 69.6367 187.396 70.082 186.951 70.668C186.529 71.2539 186.025 71.8516 185.439 72.4609C184.877 73.0469 184.291 73.5742 183.682 74.043C183.072 74.4883 182.545 74.7227 182.1 74.7461C180.998 74.8164 180.131 74.4297 179.498 73.5859C178.865 72.7422 178.396 71.6406 178.092 70.2812C177.81 68.8984 177.646 67.3633 177.6 65.6758C177.553 63.9883 177.553 62.3477 177.6 60.7539C177.646 59.1602 177.705 57.7188 177.775 56.4297C177.846 55.1406 177.846 54.1914 177.775 53.582C177.846 53.3945 177.963 53.2539 178.127 53.1602C178.314 53.0664 178.514 53.0195 178.725 53.0195C178.935 53.0195 179.135 53.0664 179.322 53.1602C179.533 53.2539 179.685 53.3945 179.779 53.582C179.826 54.3789 179.838 55.375 179.814 56.5703C179.791 57.7656 179.768 59.043 179.744 60.4023C179.721 61.7383 179.721 63.0859 179.744 64.4453C179.791 65.8047 179.885 67.0469 180.025 68.1719C180.166 69.2734 180.377 70.1992 180.658 70.9492C180.963 71.6758 181.385 72.0859 181.924 72.1797C182.322 72.1797 182.721 72.0508 183.119 71.793C183.518 71.5352 183.916 71.207 184.314 70.8086C184.713 70.3867 185.088 69.9297 185.439 69.4375C185.791 68.9219 186.096 68.4297 186.353 67.9609C186.611 67.4688 186.822 67.0234 186.986 66.625C187.15 66.2266 187.244 65.9219 187.268 65.7109C187.291 65.4297 187.326 64.9844 187.373 64.375C187.42 63.7422 187.455 63.0391 187.478 62.2656C187.525 61.4688 187.56 60.625 187.584 59.7344C187.631 58.8438 187.666 58.0117 187.689 57.2383C187.736 56.4414 187.76 55.7383 187.76 55.1289C187.783 54.4961 187.795 54.0391 187.795 53.7578ZM202.77 73.832C202.7 70.5977 202.641 67.8555 202.594 65.6055C202.547 63.3555 202.512 61.4922 202.489 60.0156C202.465 58.5391 202.442 57.3906 202.418 56.5703C202.418 55.7266 202.407 55.1055 202.383 54.707C202.383 54.3086 202.383 54.0742 202.383 54.0039C202.383 53.9102 202.383 53.8516 202.383 53.8281C202.407 53.6172 202.512 53.4414 202.7 53.3008C202.887 53.1602 203.086 53.0781 203.297 53.0547C203.532 53.0078 203.754 53.0312 203.965 53.125C204.176 53.2188 204.329 53.3711 204.422 53.582L204.528 61.668C204.879 60.0508 205.442 58.7031 206.215 57.625C207.012 56.5469 207.903 55.7031 208.887 55.0938C209.872 54.4609 210.891 54.0508 211.946 53.8633C213.024 53.6758 214.02 53.6641 214.934 53.8281C215.239 53.8984 215.461 54.0273 215.602 54.2148C215.766 54.4023 215.848 54.6133 215.848 54.8477C215.872 55.0586 215.813 55.2695 215.672 55.4805C215.555 55.668 215.391 55.8086 215.18 55.9023C214.125 55.832 213.129 55.9258 212.192 56.1836C211.278 56.418 210.434 56.7812 209.661 57.2734C208.911 57.7422 208.243 58.3047 207.657 58.9609C207.094 59.6172 206.649 60.3086 206.321 61.0352C205.829 62.0898 205.489 63.2031 205.301 64.375C205.137 65.5234 205.032 66.6719 204.985 67.8203C204.961 68.9688 204.961 70.0586 204.985 71.0898C205.032 72.1211 205.043 73.0234 205.02 73.7969C204.997 74.0547 204.879 74.2539 204.668 74.3945C204.481 74.5117 204.258 74.5703 204 74.5703C203.766 74.5938 203.52 74.5469 203.262 74.4297C203.028 74.2891 202.864 74.0898 202.77 73.832ZM227.097 65.1133C226.933 65.2539 226.64 65.3125 226.218 65.2891C225.819 65.2422 225.444 65.1484 225.093 65.0078C224.765 64.8672 224.542 64.6797 224.425 64.4453C224.308 64.1875 224.448 63.8945 224.847 63.5664C225.011 63.4258 225.187 63.332 225.374 63.2852C225.585 63.2148 225.784 63.1562 225.972 63.1094C226.183 63.0391 226.347 62.9453 226.464 62.8281C226.605 62.7109 226.687 62.5234 226.71 62.2656C226.733 61.2109 226.815 60.1328 226.956 59.0312C227.12 57.9297 227.413 56.9453 227.835 56.0781C228.257 55.2109 228.855 54.5195 229.628 54.0039C230.425 53.4883 231.468 53.2891 232.757 53.4062C233.226 53.4062 233.753 53.5234 234.339 53.7578C234.925 53.9688 235.487 54.2617 236.026 54.6367C236.565 54.9883 237.034 55.4219 237.433 55.9375C237.831 56.4297 238.077 56.9688 238.171 57.5547C238.335 57.7891 238.241 58.082 237.89 58.4336C237.538 58.7852 237.046 59.1836 236.413 59.6289C235.78 60.0508 235.065 60.4844 234.269 60.9297C233.472 61.375 232.698 61.7969 231.948 62.1953C231.222 62.5938 230.577 62.9453 230.015 63.25C229.452 63.5547 229.089 63.7656 228.925 63.8828C229.065 64.7969 229.218 65.7578 229.382 66.7656C229.546 67.7734 229.78 68.6992 230.085 69.543C230.39 70.3867 230.765 71.0898 231.21 71.6523C231.679 72.1914 232.265 72.4609 232.968 72.4609C233.999 72.5312 234.878 72.3789 235.605 72.0039C236.355 71.6289 236.976 71.1367 237.468 70.5273C237.96 69.918 238.347 69.25 238.628 68.5234C238.933 67.7969 239.155 67.1055 239.296 66.4492C239.46 65.793 239.565 65.2422 239.612 64.7969C239.683 64.3281 239.741 64.0703 239.788 64.0234C240.046 63.8828 240.339 63.8828 240.667 64.0234C240.995 64.1406 241.183 64.4805 241.23 65.043C241.253 65.957 241.054 67 240.632 68.1719C240.21 69.3438 239.624 70.4219 238.874 71.4062C238.147 72.3906 237.269 73.1875 236.237 73.7969C235.23 74.3828 234.151 74.582 233.003 74.3945C231.808 74.3711 230.858 74.0312 230.155 73.375C229.452 72.6953 228.89 71.8867 228.468 70.9492C228.069 69.9883 227.776 68.9805 227.589 67.9258C227.401 66.8711 227.237 65.9336 227.097 65.1133ZM236.308 57.5547C235.558 56.5234 234.796 55.8672 234.022 55.5859C233.249 55.3047 232.452 55.2227 231.632 55.3398C231.14 55.4102 230.706 55.6445 230.331 56.043C229.956 56.418 229.651 56.9102 229.417 57.5195C229.183 58.1055 229.019 58.7734 228.925 59.5234C228.831 60.25 228.819 61 228.89 61.7734L236.308 57.5547Z" fill="black" fill-opacity="0.8"/>
</g>
</g>
<g id="man">
<path id="Vector_13" d="M127.299 51.3948C127.364 51.1918 127.376 50.979 127.334 50.7715C127.293 50.564 127.199 50.3667 127.059 50.1937C126.919 50.0207 126.737 49.8761 126.524 49.7701C126.312 49.664 126.076 49.5992 125.831 49.5801L124.394 44.6129L122.291 46.5682L123.978 50.9853C123.968 51.3396 124.11 51.6849 124.376 51.9556C124.643 52.2264 125.017 52.4038 125.426 52.4543C125.835 52.5048 126.252 52.4248 126.597 52.2295C126.942 52.0342 127.192 51.7372 127.299 51.3948H127.299Z" fill="#FFB8B8"/>
<path id="Vector_14" d="M123.446 49.8671C123.349 49.8322 123.261 49.7802 123.189 49.7143C123.116 49.6485 123.061 49.5703 123.026 49.4848L120.627 43.1582C120.008 41.6385 120.053 39.9777 120.755 38.4846L123.067 33.5647C123.119 33.2955 123.232 33.0378 123.401 32.8062C123.569 32.5746 123.789 32.3738 124.048 32.2151C124.306 32.0564 124.599 31.943 124.909 31.8814C125.219 31.8197 125.541 31.8111 125.855 31.856C126.169 31.9008 126.469 31.9983 126.739 32.1428C127.009 32.2873 127.243 32.4759 127.428 32.698C127.613 32.9201 127.745 33.1713 127.816 33.4371C127.888 33.7029 127.898 33.9783 127.845 34.2473L124.655 42.2036L125.772 48.6821C125.787 48.8139 125.754 48.9465 125.678 49.0618C125.602 49.1772 125.487 49.2698 125.347 49.3271L124.059 49.8539C123.921 49.9103 123.766 49.9293 123.615 49.9083C123.557 49.9004 123.501 49.8865 123.446 49.8671V49.8671Z" fill="#2F2E41"/>
<path id="Vector_15" d="M135.303 74.2279L137.352 74.2278L138.326 67.4557L135.303 67.4559L135.303 74.2279Z" fill="#FFB8B8"/>
<path id="Vector_16" d="M141.302 75.8579L134.865 75.8582L134.864 73.7263L138.815 73.7261C139.474 73.7261 140.107 73.9507 140.574 74.3505C141.04 74.7503 141.302 75.2925 141.302 75.8579V75.8579V75.8579Z" fill="#2F2E41"/>
<path id="Vector_17" d="M125.112 74.2279L127.16 74.2278L128.135 67.4557L125.112 67.4559L125.112 74.2279Z" fill="#FFB8B8"/>
<path id="Vector_18" d="M131.111 75.8579L124.673 75.8582L124.673 73.7263L128.623 73.7261C129.283 73.7261 129.916 73.9507 130.382 74.3505C130.848 74.7503 131.111 75.2925 131.111 75.8579V75.8579V75.8579Z" fill="#2F2E41"/>
<path id="Vector_19" d="M135.863 46.6272L137.664 58.8551C137.911 60.5362 138.085 62.2234 138.183 63.9169L138.668 72.2328C138.673 72.3103 138.659 72.3878 138.628 72.4606C138.596 72.5334 138.548 72.5999 138.485 72.6562C138.423 72.7124 138.348 72.7572 138.264 72.7878C138.181 72.8184 138.092 72.8342 138.001 72.8342H135.268C135.108 72.8342 134.954 72.7851 134.833 72.6958C134.711 72.6064 134.632 72.4828 134.608 72.3474L132.15 58.4686C132.138 58.4017 132.099 58.3405 132.04 58.296C131.98 58.2514 131.904 58.2264 131.825 58.2252C131.746 58.2241 131.669 58.2469 131.608 58.2897C131.547 58.3325 131.506 58.3925 131.491 58.459L128.53 72.0518C128.501 72.174 128.426 72.2846 128.317 72.367C128.207 72.4493 128.07 72.4987 127.924 72.5078L125.409 72.6446C125.316 72.6505 125.222 72.6394 125.134 72.6122C125.046 72.585 124.965 72.5423 124.898 72.4867C124.83 72.4312 124.777 72.3641 124.742 72.2898C124.706 72.2155 124.69 72.1356 124.693 72.0554L125.505 49.7778L135.863 46.6272Z" fill="#2F2E41"/>
<path id="Vector_20" d="M127.886 29.2103C130.152 29.2103 131.989 27.6356 131.989 25.693C131.989 23.7504 130.152 22.1757 127.886 22.1757C125.62 22.1757 123.782 23.7504 123.782 25.693C123.782 27.6356 125.62 29.2103 127.886 29.2103Z" fill="#FFB8B8"/>
<path id="Vector_21" d="M124.669 50.0642C125.672 52.0691 130.016 53.5012 131.018 50.637C131.793 48.423 134.864 47.4922 136.219 47.1843C136.39 47.1454 136.535 47.0505 136.625 46.9203C136.714 46.79 136.74 46.6349 136.697 46.4883L132.909 33.7357C132.689 32.9928 132.249 32.3109 131.633 31.7553C131.017 31.1996 130.245 30.7888 129.391 30.5622C126.38 29.7631 123.206 31.4085 122.696 34.0736C122.557 34.8209 122.468 35.5745 122.431 36.3306C122.116 41.9572 124.009 48.7438 124.669 50.0642Z" fill="#F9A826"/>
<path id="Vector_22" d="M138.268 50.0605C138.243 49.8511 138.165 49.6488 138.039 49.4679C137.914 49.287 137.743 49.1319 137.54 49.0136C137.337 48.8952 137.106 48.8165 136.864 48.7829C136.621 48.7494 136.373 48.7618 136.137 48.8193L132.713 44.6269L131.571 47.0994L134.997 50.7015C135.136 51.0353 135.413 51.3138 135.776 51.4842C136.138 51.6547 136.561 51.7051 136.964 51.6261C137.368 51.5471 137.723 51.3441 137.963 51.0556C138.203 50.767 138.312 50.413 138.268 50.0605L138.268 50.0605Z" fill="#FFB8B8"/>
<path id="Vector_23" d="M134.032 49.8219C133.927 49.8194 133.823 49.7978 133.728 49.7587C133.632 49.7196 133.548 49.6637 133.479 49.5947L128.588 44.43C127.372 43.2029 126.718 41.639 126.747 40.0294L126.841 34.726C126.777 34.4589 126.775 34.1836 126.835 33.9157C126.895 33.6479 127.016 33.3928 127.191 33.1651C127.366 32.9373 127.592 32.7414 127.855 32.5884C128.119 32.4355 128.415 32.3285 128.726 32.2737C129.038 32.2188 129.359 32.2171 129.672 32.2687C129.984 32.3203 130.282 32.4242 130.547 32.5743C130.813 32.7245 131.041 32.9181 131.22 33.144C131.398 33.3699 131.522 33.6237 131.586 33.8908L131.946 42.2982L135.705 47.9996C135.774 48.1181 135.799 48.2518 135.777 48.3829C135.754 48.5139 135.685 48.6359 135.58 48.7323L134.599 49.6206C134.493 49.7159 134.357 49.7813 134.207 49.8083C134.15 49.8187 134.091 49.8233 134.032 49.8219V49.8219Z" fill="#2F2E41"/>
<path id="Vector_24" d="M124.771 28.5699C124.86 28.6148 124.959 28.6417 125.061 28.6485C125.164 28.6552 125.267 28.6417 125.362 28.6089C125.457 28.5761 125.543 28.525 125.611 28.4594C125.68 28.3938 125.73 28.3156 125.757 28.2308L125.76 28.2228C125.834 27.9558 125.772 27.6771 125.751 27.4032C125.73 27.1293 125.761 26.8285 125.978 26.6271C126.384 26.2517 127.106 26.4507 127.692 26.3558C128.036 26.2901 128.34 26.1193 128.547 25.8754C128.754 25.6315 128.851 25.3312 128.818 25.0307C128.81 24.9738 128.797 24.9168 128.782 24.8598C128.746 24.7155 128.748 24.5659 128.791 24.4227C128.833 24.2795 128.913 24.1466 129.025 24.0345C129.137 23.9223 129.278 23.834 129.437 23.7764C129.596 23.7188 129.768 23.6935 129.94 23.7025C130.532 23.7316 131.172 23.8855 131.663 23.5092C131.843 23.3607 131.967 23.1702 132.022 22.9613C132.076 22.7525 132.057 22.5345 131.968 22.3347C131.688 21.6418 130.896 21.2791 130.113 21.0797C129.144 20.8398 128.125 20.7879 127.13 20.9278C126.135 21.0678 125.189 21.396 124.361 21.8887C123.866 22.1876 123.404 22.5632 123.193 23.0495C122.982 23.5359 123.084 24.1494 123.559 24.4705C123.191 24.8049 122.931 25.2166 122.807 25.6641C122.682 26.1117 122.697 26.5794 122.85 27.0205C123.085 27.6691 124.206 28.291 124.771 28.5699Z" fill="#2F2E41"/>
</g>
</g>
<defs>
<filter id="filter0_b" x="-2.94531" y="39.5229" width="248.177" height="40.0054" filterUnits="userSpaceOnUse" color-interpolation-filters="sRGB">
<feFlood flood-opacity="0" result="BackgroundImageFix"/>
<feGaussianBlur in="BackgroundImage" stdDeviation="2"/>
<feComposite in2="SourceAlpha" operator="in" result="effect1_backgroundBlur"/>
<feBlend mode="normal" in="SourceGraphic" in2="effect1_backgroundBlur" result="shape"/>
</filter>
</defs>
</svg>
