<svg width="232" height="212" viewBox="0 0 232 212" fill="none" xmlns="http://www.w3.org/2000/svg">
<g id="Group 1">
<ellipse id="Ellipse 1" cx="120.5" cy="106" rx="87.5" ry="85" fill="#FFA500"/>
<path id="Subtract" fill-rule="evenodd" clip-rule="evenodd" d="M195.459 0H44.5408C42.9205 7.63593 40.0035 14.7323 36.0556 21H203.944C199.996 14.7323 197.079 7.63593 195.459 0ZM232 191H0V212H232V191Z" fill="#D2691E"/>
<path id="F" d="M104.812 77.75C104.812 77 105.031 76.4688 105.469 76.1562C105.906 75.8438 106.438 75.625 107.062 75.5C107.688 75.375 108.344 75.3125 109.031 75.3125C109.719 75.3125 110.312 75.2812 110.812 75.2188V85.1562C115.375 83.7812 119.156 82.5625 122.156 81.5C125.156 80.375 127.875 79.4062 130.312 78.5938C132.75 77.7188 135.125 76.9375 137.438 76.25C139.75 75.5 142.5 74.7812 145.688 74.0938C146.188 74.0938 146.531 74.3438 146.719 74.8438C146.906 75.3438 147 75.7812 147 76.1562C147 76.9688 146.562 77.625 145.688 78.125L111.188 90.7812L112.781 121.156C117.906 118.281 122.219 115.844 125.719 113.844C129.281 111.844 132.219 110.188 134.531 108.875C136.844 107.562 138.625 106.562 139.875 105.875C141.188 105.188 142.156 104.688 142.781 104.375C143.406 104.062 143.781 103.875 143.906 103.812C144.031 103.75 144.125 103.719 144.188 103.719C144.75 103.531 145.125 103.562 145.312 103.812C145.5 104 145.594 104.312 145.594 104.75C145.594 105.188 145.5 105.688 145.312 106.25C145.188 106.812 145.031 107.344 144.844 107.844C144.531 108.281 143.5 109.031 141.75 110.094C140.062 111.156 138.031 112.375 135.656 113.75C133.281 115.125 130.75 116.594 128.062 118.156C125.438 119.656 122.969 121.062 120.656 122.375C118.406 123.688 116.531 124.844 115.031 125.844C113.531 126.844 112.781 127.5 112.781 127.812L113.062 152.281C113.062 153.156 112.906 153.844 112.594 154.344C112.281 154.844 111.781 155.094 111.094 155.094C110.344 155.094 109.656 154.125 109.031 152.188C108.469 150.188 107.969 147.562 107.531 144.312C107.094 141 106.719 137.219 106.406 132.969C106.094 128.656 105.844 124.219 105.656 119.656C105.469 115.094 105.312 110.562 105.188 106.062C105.062 101.5 104.969 97.3125 104.906 93.5C104.844 89.6875 104.812 86.375 104.812 83.5625C104.812 80.75 104.812 78.8125 104.812 77.75Z" fill="black"/>
</g>
</svg>
